HIERARCHY
ROOT Hips
{
	OFFSET	0.00	0.00	0.00
	CHANNELS 6 Xposition Yposition Zposition Zrotation Xrotation Yrotation
	JOINT LeftUpLeg
	{
		OFFSET	 0.126116	-0.014019	-0.065224
		CHANNELS 3 Zrotation Xrotation Yrotation
		JOINT LeftLeg
		{
			OFFSET	 0.000000	 0.000000	 0.569914
			CHANNELS 3 Zrotation Xrotation Yrotation
			JOINT LeftFoot
			{
				OFFSET	 0.000000	 0.000000	 0.544423
				CHANNELS 3 Zrotation Xrotation Yrotation
				JOINT LeftToeBase
				{
					OFFSET	 0.000000	 0.000000	 0.207117
					CHANNELS 3 Zrotation Xrotation Yrotation
					End Site
					{
						OFFSET	 0.000000	 0.000000	 0.207117
					}
				}
			}
		}
	}
	JOINT RightUpLeg
	{
		OFFSET	-0.124023	-0.008373	-0.065224
		CHANNELS 3 Zrotation Xrotation Yrotation
		JOINT RightLeg
		{
			OFFSET	 0.000000	 0.000000	 0.570047
			CHANNELS 3 Zrotation Xrotation Yrotation
			JOINT RightFoot
			{
				OFFSET	 0.000000	 0.000000	 0.544354
				CHANNELS 3 Zrotation Xrotation Yrotation
				JOINT RightToeBase
				{
					OFFSET	 0.000000	 0.000000	 0.207540
					CHANNELS 3 Zrotation Xrotation Yrotation
					End Site
					{
						OFFSET	 0.000000	 0.000000	 0.207540
					}
				}
			}
		}
	}
	JOINT Spine
	{
		OFFSET	 0.000184	-0.007763	 0.117403
		CHANNELS 3 Zrotation Xrotation Yrotation
		JOINT Spine1
		{
			OFFSET	 0.000000	 0.000000	 0.137269
			CHANNELS 3 Zrotation Xrotation Yrotation
			JOINT Spine2
			{
				OFFSET	 0.000000	 0.000000	 0.156879
				CHANNELS 3 Zrotation Xrotation Yrotation
				JOINT LeftShoulder
				{
					OFFSET	 0.080501	-0.002496	 0.160144
					CHANNELS 3 Zrotation Xrotation Yrotation
					JOINT LeftArm
					{
						OFFSET	 0.000000	 0.000000	 0.164363
						CHANNELS 3 Zrotation Xrotation Yrotation
						JOINT LeftForeArm
						{
							OFFSET	 0.000000	 0.000000	 0.364576
							CHANNELS 3 Zrotation Xrotation Yrotation
							JOINT LeftHand
							{
								OFFSET	 0.000000	 0.000000	 0.360812
								CHANNELS 3 Zrotation Xrotation Yrotation
								JOINT LeftHandIndex1
								{
									OFFSET	 0.000000	 0.000000	 0.086006
									CHANNELS 3 Zrotation Xrotation Yrotation
									JOINT LeftHandIndex2
									{
										OFFSET	 0.000000	 0.000000	 0.047236
										CHANNELS 3 Zrotation Xrotation Yrotation
										JOINT LeftHandIndex3
										{
											OFFSET	-0.004284	-0.000551	 0.038166
											CHANNELS 3 Zrotation Xrotation Yrotation
											End Site
											{
												OFFSET	-0.004284	-0.000551	 0.038166
											}
										}
									}
								}
							}
						}
					}
				}
				JOINT Neck
				{
					OFFSET	 0.000000	 0.000000	 0.176489
					CHANNELS 3 Zrotation Xrotation Yrotation
					JOINT Head
					{
						OFFSET	 0.000000	-0.001747	 0.077940
						CHANNELS 3 Zrotation Xrotation Yrotation
						End Site
						{
							OFFSET	 0.000000	-0.001747	 0.077940
						}
					}
				}
				JOINT RightShoulder
				{
					OFFSET	-0.080363	 0.000306	 0.159706
					CHANNELS 3 Zrotation Xrotation Yrotation
					JOINT RightArm
					{
						OFFSET	 0.000000	 0.000000	 0.164196
						CHANNELS 3 Zrotation Xrotation Yrotation
						JOINT RightForeArm
						{
							OFFSET	 0.000000	 0.000000	 0.365611
							CHANNELS 3 Zrotation Xrotation Yrotation
							JOINT RightHand
							{
								OFFSET	 0.000000	 0.000000	 0.360648
								CHANNELS 3 Zrotation Xrotation Yrotation
								JOINT RightHandIndex1
								{
									OFFSET	 0.000000	 0.000000	 0.069977
									CHANNELS 3 Zrotation Xrotation Yrotation
									JOINT RightHandIndex2
									{
										OFFSET	 0.000000	 0.000000	 0.052305
										CHANNELS 3 Zrotation Xrotation Yrotation
										JOINT RightHandIndex3
										{
											OFFSET	 0.009002	-0.000782	 0.042196
											CHANNELS 3 Zrotation Xrotation Yrotation
											End Site
											{
												OFFSET	 0.009002	-0.000782	 0.042196
											}
										}
									}
								}
							}
						}
					}
				}
			}
		}
	}
}
MOTION
Frames:    4
Frame Time: 0.03333334
-0.000566	 0.019765	 1.270801	 0.003175	 0.003835	-0.140160	 13.609180	-1.763064	 175.626900	 1.497788	-9.777018	-0.567992	-9.798605	 68.841670	 4.033506	-2.385833	 28.452760	 0.000004	-13.688700	-2.679223	-175.464500	-1.470462	-11.055790	 0.632209	 9.755882	 69.404590	-4.145380	 2.384658	 28.388730	 0.000004	 2.558907	 2.740478	-0.059943	 1.644988	 3.642856	 0.656790	-4.946690	-4.535133	-1.083510	-91.776130	 78.527450	 180.000000	 44.046690	 32.592130	-62.723680	-8.566668	 0.177837	-0.595636	-29.397340	 0.558091	-4.349339	-2.635965	 4.993658	 6.788941	-5.165319	 0.784187	 3.516649	-5.225038	 0.466231	 0.424329	-0.000002	-3.783157	-0.089647	-4.801828	 4.828204	 0.202544	 89.782100	 78.203900	 180.000000	-62.456280	 41.324360	 57.702550	 8.610304	 0.212297	 0.631177	 28.847080	-0.236636	 8.952410	 6.112037	 4.509576	-0.364401	 4.968462	 1.518543	-9.347576	 5.168945	 0.703820	 2.021906
-0.000567	 0.019954	 1.268037	 0.003184	 0.003839	-0.140186	 14.222910	-3.251567	 175.695000	 1.463572	-12.709980	-0.743441	-10.719750	 70.249400	 5.019109	-2.385833	 28.452760	 0.000004	-14.307130	-4.051022	-175.523500	-1.436271	-13.743700	 0.791381	 10.606810	 70.694430	-5.052588	 2.384658	 28.388730	 0.000004	-1.283828	 2.740472	-0.059920	 1.644981	 3.642854	 0.656785	-4.946682	-4.535131	-1.083499	-91.776190	 78.527430	-180.000000	 43.955590	 32.499660	-62.538320	-10.924830	 0.248478	-1.554126	-29.778970	 0.672898	-4.344853	-2.635965	 4.993658	 6.788941	-5.165319	 0.784187	 3.516649	-5.225038	 0.466231	 0.424329	-0.000002	-3.783157	-0.089647	-4.801853	 4.828221	 0.202546	 89.782120	 78.203870	 180.000000	-62.036840	 41.112400	 58.399410	 10.764850	 0.283405	 1.590937	 29.109030	-0.190606	 8.884087	 6.112037	 4.509576	-0.364401	 4.968462	 1.518543	-9.347576	 5.168945	 0.703820	 2.021906
-0.000568	 0.020140	 1.265345	 0.003176	 0.003833	-0.140149	 14.843940	-4.457901	 175.739400	 1.429066	-15.063830	-0.887168	-11.555330	 71.365510	 5.906337	-2.385833	 28.452760	 0.000004	-14.930050	-5.186601	-175.563600	-1.402142	-15.946990	 0.924578	 11.388430	 71.740100	-5.880065	 2.384658	 28.388730	 0.000004	-4.759051	 2.740477	-0.059957	 1.644987	 3.642870	 0.656811	-4.946686	-4.535144	-1.083520	-91.776110	 78.527450	 179.999900	 43.859040	 32.407240	-62.342900	-13.072240	 0.382693	-2.424423	-30.128580	 0.777853	-4.339552	-2.635965	 4.993658	 6.788941	-5.165319	 0.784187	 3.516649	-5.225038	 0.466231	 0.424329	-0.000002	-3.783157	-0.089647	-4.801828	 4.828204	 0.202544	 89.782100	 78.203890	 180.000000	-61.531060	 40.877460	 59.325020	 12.696380	 0.415904	 2.458441	 29.359420	-0.158389	 8.819742	 6.112037	 4.509576	-0.364401	 4.968462	 1.518543	-9.347576	 5.168945	 0.703820	 2.021906
-0.000568	 0.020330	 1.262622	 0.003176	 0.003833	-0.140145	 15.484990	-5.523000	 175.771000	 1.393458	-17.124150	-1.015596	-12.368330	 72.331640	 6.764421	-2.385833	 28.452760	 0.000004	-15.571590	-6.205514	-175.593300	-1.366912	-17.907180	 1.045557	 12.157590	 72.661220	-6.689761	 2.384658	 28.388730	 0.000004	-8.097640	 2.740466	-0.059960	 1.644989	 3.642886	 0.656803	-4.946686	-4.535148	-1.083517	-91.776160	 78.527430	 180.000000	 43.755980	 32.306770	-62.132190	-15.163250	 0.576423	-3.264292	-30.472190	 0.880704	-4.333252	-2.635965	 4.993658	 6.788941	-5.165319	 0.784187	 3.516649	-5.225038	 0.466231	 0.424329	-0.000002	-3.783157	-0.089647	-4.801826	 4.828204	 0.202544	 89.782150	 78.203900	 180.000000	-60.987080	 40.487710	 60.549430	 14.453380	 0.608412	 3.298675	 29.733830	-0.258854	 8.688958	 6.112037	 4.509576	-0.364401	 4.968462	 1.518543	-9.347576	 5.168945	 0.703820	 2.021906
